<mxfile host="app.diagrams.net" modified="2021-08-28T21:19:28.559Z" agent="5.0 (Windows NT 10.0; Win64; x64) AppleWebKit/537.36 (KHTML, like Gecko) Chrome/92.0.4515.159 Safari/537.36" etag="I25v2alp0TlgingRKzS1" version="15.0.3" type="github">
  <diagram id="C5RBs43oDa-KdzZeNtuy" name="Page-1">
    <mxGraphModel dx="1038" dy="547" grid="1" gridSize="10" guides="1" tooltips="1" connect="1" arrows="1" fold="1" page="1" pageScale="1" pageWidth="827" pageHeight="1169" math="0" shadow="0">
      <root>
        <mxCell id="WIyWlLk6GJQsqaUBKTNV-0" />
        <mxCell id="WIyWlLk6GJQsqaUBKTNV-1" parent="WIyWlLk6GJQsqaUBKTNV-0" />
        <mxCell id="ckuQTpAYdSe_BpLvQ1Hi-2" value="" style="edgeStyle=orthogonalEdgeStyle;rounded=0;orthogonalLoop=1;jettySize=auto;html=1;" edge="1" parent="WIyWlLk6GJQsqaUBKTNV-1" source="ckuQTpAYdSe_BpLvQ1Hi-0" target="ckuQTpAYdSe_BpLvQ1Hi-1">
          <mxGeometry relative="1" as="geometry" />
        </mxCell>
        <mxCell id="ckuQTpAYdSe_BpLvQ1Hi-0" value="Make website change" style="ellipse;whiteSpace=wrap;html=1;" vertex="1" parent="WIyWlLk6GJQsqaUBKTNV-1">
          <mxGeometry x="160" y="90" width="120" height="80" as="geometry" />
        </mxCell>
        <mxCell id="ckuQTpAYdSe_BpLvQ1Hi-4" value="" style="edgeStyle=orthogonalEdgeStyle;rounded=0;orthogonalLoop=1;jettySize=auto;html=1;" edge="1" parent="WIyWlLk6GJQsqaUBKTNV-1" source="ckuQTpAYdSe_BpLvQ1Hi-1" target="ckuQTpAYdSe_BpLvQ1Hi-3">
          <mxGeometry relative="1" as="geometry" />
        </mxCell>
        <mxCell id="ckuQTpAYdSe_BpLvQ1Hi-1" value="Create pull request" style="ellipse;whiteSpace=wrap;html=1;" vertex="1" parent="WIyWlLk6GJQsqaUBKTNV-1">
          <mxGeometry x="390" y="90" width="120" height="80" as="geometry" />
        </mxCell>
        <mxCell id="ckuQTpAYdSe_BpLvQ1Hi-6" value="" style="edgeStyle=orthogonalEdgeStyle;rounded=0;orthogonalLoop=1;jettySize=auto;html=1;" edge="1" parent="WIyWlLk6GJQsqaUBKTNV-1" source="ckuQTpAYdSe_BpLvQ1Hi-3" target="ckuQTpAYdSe_BpLvQ1Hi-5">
          <mxGeometry relative="1" as="geometry" />
        </mxCell>
        <mxCell id="ckuQTpAYdSe_BpLvQ1Hi-3" value="Merge" style="ellipse;whiteSpace=wrap;html=1;" vertex="1" parent="WIyWlLk6GJQsqaUBKTNV-1">
          <mxGeometry x="390" y="260" width="120" height="60" as="geometry" />
        </mxCell>
        <mxCell id="ckuQTpAYdSe_BpLvQ1Hi-5" value="Build and Deploy" style="ellipse;whiteSpace=wrap;html=1;" vertex="1" parent="WIyWlLk6GJQsqaUBKTNV-1">
          <mxGeometry x="390" y="400" width="120" height="60" as="geometry" />
        </mxCell>
      </root>
    </mxGraphModel>
  </diagram>
</mxfile>
